# xmcd CD database file
#
# Track frame offsets:
#	150
#	27687
#	47192
#	70975
#	95400
#	111035
#	135557
#	155697
#	180347
#	201782
#	223932
#	253555
#	301010
#
# Disc length: 4225 seconds
#
# Revision: 0
# Processed by: cddbd v1.5PL3 Copyright (c) Steve Scherf et al.
# Submitted via: CDex 1.51
#
DISCID=b8107f0d
DTITLE=さまざまなアーティスト - サクラ大戦歌謡ショウ 「愛ゆえに」
DYEAR=1997
DGENRE=Other
TTITLE0=檄!帝国華撃団
TTITLE1=愛はダイヤ
TTITLE2=エチュード
TTITLE3=東京的休日
TTITLE4=この世は楽し
TTITLE5=さくら
TTITLE6=灼熱ブギ
TTITLE7=オンリー・マン
TTITLE8=夜のサンバ
TTITLE9=なやましマンボ
TTITLE10=愛ゆえに
TTITLE11=花咲く乙女
TTITLE12=檄!帝国華撃団
EXTD=YEAR: 1997
EXTT0=
EXTT1=
EXTT2=
EXTT3=
EXTT4=
EXTT5=
EXTT6=
EXTT7=
EXTT8=
EXTT9=
EXTT10=
EXTT11=
EXTT12=
PLAYORDER=
